<!DOCTYPE svg PUBLIC "-//W3C//DTD SVG 1.1//EN" "http://www.w3.org/Graphics/SVG/1.1/DTD/svg11.dtd">
<!-- Uploaded to: SVG Repo, www.svgrepo.com, Transformed by: SVG Repo Mixer Tools -->
<svg fill="#e2b1b9" height="800px" width="800px" version="1.1" id="Layer_1" xmlns="http://www.w3.org/2000/svg" xmlns:xlink="http://www.w3.org/1999/xlink" viewBox="0 0 472.615 472.615" xml:space="preserve" transform="matrix(-1, 0, 0, 1, 0, 0)" stroke="#e2b1b9">
<g id="SVGRepo_bgCarrier" stroke-width="0"/>
<g id="SVGRepo_tracerCarrier" stroke-linecap="round" stroke-linejoin="round"/>
<g id="SVGRepo_iconCarrier"> <g> <g> <path d="M395.039,184.812C393.661,82.61,309.279,0,205.796,0C101.427,0,16.553,83.988,16.553,186.39 c-0.197,2.658-5.809,66.265,39.582,130.855c19.495,27.764,32.098,54.351,38.498,81.231c5.022,20.873,7.582,42.533,7.582,64.293 v9.846h219.274V384h78.769v-88.615h56.123L395.039,184.812z M301.796,157.5h-29.538v19.692h29.53l0.008,0.005v19.692h-29.538 v19.692h29.538v19.692h-29.538v19.692h-19.692v29.538h-19.692v-29.538h-19.692v29.538h-19.692v-29.538h-19.692v29.538h-19.692 v-29.538h-19.692v-19.692h-29.538v-19.692h29.538V196.89h-29.538v-19.692h29.538v-19.692h-29.538v-19.692h29.538V118.12h19.692 V88.582h19.692v29.538h19.692V88.582h19.692v29.538h19.692V88.582h19.692v29.538h19.692v19.692h29.538V157.5z"/> </g> </g> </g>
</svg>